<svg width="200" height="200" viewBox="0 0 200 200" fill="none" xmlns="http://www.w3.org/2000/svg">
  <!-- Background Circle -->
  <circle cx="100" cy="100" r="90" fill="url(#gradient1)" opacity="0.1"/>
  
  <!-- Central Device/Screen -->
  <rect x="70" y="60" width="60" height="80" rx="8" fill="url(#gradient2)" stroke="url(#gradient3)" stroke-width="2"/>
  
  <!-- Screen Content -->
  <rect x="75" y="70" width="50" height="30" rx="4" fill="#ffffff" opacity="0.9"/>
  <rect x="78" y="75" width="20" height="4" rx="2" fill="url(#gradient3)"/>
  <rect x="78" y="82" width="44" height="3" rx="1.5" fill="url(#gradient3)" opacity="0.6"/>
  <rect x="78" y="88" width="35" height="3" rx="1.5" fill="url(#gradient3)" opacity="0.4"/>
  
  <!-- Floating Icons -->
  <g transform="translate(45, 40)">
    <circle cx="0" cy="0" r="12" fill="url(#gradient4)" opacity="0.8"/>
    <path d="M-6 -3 L-2 1 L6 -7" stroke="white" stroke-width="2" stroke-linecap="round" stroke-linejoin="round"/>
  </g>
  
  <g transform="translate(155, 50)">
    <circle cx="0" cy="0" r="10" fill="url(#gradient5)" opacity="0.8"/>
    <rect x="-4" y="-4" width="8" height="8" rx="1" fill="white"/>
  </g>
  
  <g transform="translate(160, 120)">
    <circle cx="0" cy="0" r="8" fill="url(#gradient6)" opacity="0.8"/>
    <circle cx="0" cy="0" r="3" fill="white"/>
  </g>
  
  <g transform="translate(40, 120)">
    <circle cx="0" cy="0" r="10" fill="url(#gradient7)" opacity="0.8"/>
    <path d="M-4 0 L0 -4 L4 0 L0 4 Z" fill="white"/>
  </g>
  
  <!-- Connection Lines -->
  <path d="M57 52 Q70 45 85 65" stroke="url(#gradient3)" stroke-width="2" opacity="0.3" fill="none"/>
  <path d="M145 60 Q135 70 130 85" stroke="url(#gradient3)" stroke-width="2" opacity="0.3" fill="none"/>
  <path d="M152 128 Q135 135 130 120" stroke="url(#gradient3)" stroke-width="2" opacity="0.3" fill="none"/>
  <path d="M50 128 Q65 135 70 120" stroke="url(#gradient3)" stroke-width="2" opacity="0.3" fill="none"/>
  
  <!-- Gradients -->
  <defs>
    <linearGradient id="gradient1" x1="0%" y1="0%" x2="100%" y2="100%">
      <stop offset="0%" style="stop-color:#f97316"/>
      <stop offset="100%" style="stop-color:#3b82f6"/>
    </linearGradient>
    <linearGradient id="gradient2" x1="0%" y1="0%" x2="100%" y2="100%">
      <stop offset="0%" style="stop-color:#3b82f6"/>
      <stop offset="100%" style="stop-color:#1e40af"/>
    </linearGradient>
    <linearGradient id="gradient3" x1="0%" y1="0%" x2="100%" y2="100%">
      <stop offset="0%" style="stop-color:#f97316"/>
      <stop offset="100%" style="stop-color:#ea580c"/>
    </linearGradient>
    <linearGradient id="gradient4" x1="0%" y1="0%" x2="100%" y2="100%">
      <stop offset="0%" style="stop-color:#eab308"/>
      <stop offset="100%" style="stop-color:#ca8a04"/>
    </linearGradient>
    <linearGradient id="gradient5" x1="0%" y1="0%" x2="100%" y2="100%">
      <stop offset="0%" style="stop-color:#10b981"/>
      <stop offset="100%" style="stop-color:#059669"/>
    </linearGradient>
    <linearGradient id="gradient6" x1="0%" y1="0%" x2="100%" y2="100%">
      <stop offset="0%" style="stop-color:#8b5cf6"/>
      <stop offset="100%" style="stop-color:#7c3aed"/>
    </linearGradient>
    <linearGradient id="gradient7" x1="0%" y1="0%" x2="100%" y2="100%">
      <stop offset="0%" style="stop-color:#f59e0b"/>
      <stop offset="100%" style="stop-color:#d97706"/>
    </linearGradient>
  </defs>
</svg>